HIERARCHY
ROOT Hips
{
	OFFSET 0.00 0.00 0.00
	CHANNELS 6 Xposition Yposition Zposition Xrotation Zrotation Yrotation
	JOINT Spine
	{
		OFFSET 0.00000 0.00000 4.33175
		CHANNELS 3 Xrotation Zrotation Yrotation
		JOINT Spine1
		{
			OFFSET 0.00000 -0.75220 4.26594
			CHANNELS 3 Xrotation Zrotation Yrotation
			JOINT Spine2
			{
				OFFSET 0.00000 -0.37754 4.31527
				CHANNELS 3 Xrotation Zrotation Yrotation
				JOINT Spine3
				{
					OFFSET 0.00000 -0.00000 4.33175
					CHANNELS 3 Xrotation Zrotation Yrotation
					JOINT Neck
					{
						OFFSET 0.00000 0.55694 5.56940
						CHANNELS 3 Xrotation Zrotation Yrotation
						JOINT Neck1
						{
							OFFSET 0.00000 0.16720 1.91116
							CHANNELS 3 Xrotation Zrotation Yrotation
							JOINT Head
							{
								OFFSET 0.00000 0.33314 1.88931
								CHANNELS 3 Xrotation Zrotation Yrotation
								End Site
								{
									OFFSET 0.00000 -0.00000 3.59213
								}
							}
						}
					}
					JOINT RightShoulder
					{
						OFFSET 0.00000 -0.00000 3.89858
						CHANNELS 3 Yrotation Zrotation Xrotation
						JOINT RightArm
						{
							OFFSET 7.06076 0.00000 0.00000
							CHANNELS 3 Xrotation Zrotation Yrotation
							JOINT RightForeArm
							{
								OFFSET 10.76871 0.00000 0.00000
								CHANNELS 3 Zrotation Yrotation Xrotation
								JOINT RightHand
								{
									OFFSET 8.97422 0.00000 0.00000
									CHANNELS 3 Xrotation Zrotation Yrotation
									JOINT RightHandMiddle1
									{
										OFFSET 3.51439 0.00000 0.00000
										CHANNELS 3 Xrotation Zrotation Yrotation
										JOINT RightHandMiddle2
										{
											OFFSET 1.87243 0.00000 0.00000
											CHANNELS 3 Xrotation Yrotation Zrotation
											JOINT RightHandMiddle3
											{
												OFFSET 1.22285 0.00000 0.00000
												CHANNELS 3 Xrotation Yrotation Zrotation
												End Site
												{
													OFFSET 0.72568 0.00000 0.00000
												}
											}
										}
									}
									JOINT RightHandRing
									{
										OFFSET 0.09894 -0.32322 -0.09894
										CHANNELS 3 Zrotation Xrotation Yrotation
										JOINT RightHandRing1
										{
											OFFSET 3.10377 -0.28010 0.00000
											CHANNELS 3 Xrotation Zrotation Yrotation
											JOINT RightHandRing2
											{
												OFFSET 1.73103 -0.15622 0.00000
												CHANNELS 3 Xrotation Yrotation Zrotation
												JOINT RightHandRing3
												{
													OFFSET 1.18113 -0.10659 0.00000
													CHANNELS 3 Xrotation Yrotation Zrotation
													End Site
													{
														OFFSET 0.71859 -0.06485 0.00000
													}
												}
											}
										}
										JOINT RightHandPinky
										{
											OFFSET 0.06949 -0.33080 -0.09894
											CHANNELS 3 Zrotation Xrotation Yrotation
											JOINT RightHandPinky1
											{
												OFFSET 2.54331 -0.56873 0.00000
												CHANNELS 3 Xrotation Zrotation Yrotation
												JOINT RightHandPinky2
												{
													OFFSET 1.39252 -0.31139 0.00000
													CHANNELS 3 Xrotation Yrotation Zrotation
													JOINT RightHandPinky3
													{
														OFFSET 0.90593 -0.20258 0.00000
														CHANNELS 3 Xrotation Yrotation Zrotation
														End Site
														{
															OFFSET 0.64958 -0.14526 0.00000
														}
													}
												}
											}
										}
									}
									JOINT RightHandIndex
									{
										OFFSET 0.09894 0.32322 -0.09894
										CHANNELS 3 Zrotation Xrotation Yrotation
										JOINT RightHandIndex1
										{
											OFFSET 3.41281 0.30799 0.00000
											CHANNELS 3 Xrotation Zrotation Yrotation
											JOINT RightHandIndex2
											{
												OFFSET 1.82020 0.16426 0.00000
												CHANNELS 3 Xrotation Yrotation Zrotation
												JOINT RightHandIndex3
												{
													OFFSET 1.08855 0.09823 0.00000
													CHANNELS 3 Xrotation Yrotation Zrotation
													End Site
													{
														OFFSET 0.65712 0.05930 0.00000
													}
												}
											}
										}
										JOINT RightHandThumb1
										{
											OFFSET 0.06949 0.33080 -0.29681
											CHANNELS 3 Zrotation Xrotation Yrotation
											JOINT RightHandThumb2
											{
												OFFSET 2.14475 0.78727 0.00000
												CHANNELS 3 Xrotation Zrotation Yrotation
												JOINT RightHandThumb3
												{
													OFFSET 1.40409 0.51540 0.00000
													CHANNELS 3 Xrotation Yrotation Zrotation
													End Site
													{
														OFFSET 0.84841 0.31143 0.00000
													}
												}
											}
										}
									}
								}
							}
						}
					}
					JOINT LeftShoulder
					{
						OFFSET 0.00000 -0.00000 3.89858
						CHANNELS 3 Yrotation Zrotation Xrotation
						JOINT LeftArm
						{
							OFFSET -7.06076 0.00000 0.00000
							CHANNELS 3 Xrotation Zrotation Yrotation
							JOINT LeftForeArm
							{
								OFFSET -10.76871 0.00000 0.00000
								CHANNELS 3 Zrotation Yrotation Xrotation
								JOINT LeftHand
								{
									OFFSET -8.97422 0.00000 0.00000
									CHANNELS 3 Xrotation Zrotation Yrotation
									JOINT LeftHandMiddle1
									{
										OFFSET -3.58402 0.00000 0.00000
										CHANNELS 3 Xrotation Zrotation Yrotation
										JOINT LeftHandMiddle2
										{
											OFFSET -1.90609 0.00000 0.00000
											CHANNELS 3 Xrotation Yrotation Zrotation
											JOINT LeftHandMiddle3
											{
												OFFSET -1.23295 0.00000 0.00000
												CHANNELS 3 Xrotation Yrotation Zrotation
												End Site
												{
													OFFSET -0.75251 0.00000 0.00000
												}
											}
										}
									}
									JOINT LeftHandRing
									{
										OFFSET -0.09894 -0.23768 -0.09894
										CHANNELS 3 Zrotation Xrotation Yrotation
										JOINT LeftHandRing1
										{
											OFFSET -3.17684 -0.28669 0.00000
											CHANNELS 3 Xrotation Zrotation Yrotation
											JOINT LeftHandRing2
											{
												OFFSET -1.76756 -0.15951 0.00000
												CHANNELS 3 Xrotation Yrotation Zrotation
												JOINT LeftHandRing3
												{
													OFFSET -1.18328 -0.10678 0.00000
													CHANNELS 3 Xrotation Yrotation Zrotation
													End Site
													{
														OFFSET -0.74516 -0.06725 0.00000
													}
												}
											}
										}
										JOINT LeftHandPinky
										{
											OFFSET -0.07717 -0.24561 -0.09894
											CHANNELS 3 Zrotation Xrotation Yrotation
											JOINT LeftHandPinky1
											{
												OFFSET -2.61248 -0.58420 0.00000
												CHANNELS 3 Xrotation Zrotation Yrotation
												JOINT LeftHandPinky2
												{
													OFFSET -1.40601 -0.31441 0.00000
													CHANNELS 3 Xrotation Yrotation Zrotation
													JOINT LeftHandPinky3
													{
														OFFSET -0.92898 -0.20774 0.00000
														CHANNELS 3 Xrotation Yrotation Zrotation
														End Site
														{
															OFFSET -0.67360 -0.15063 0.00000
														}
													}
												}
											}
										}
									}
									JOINT LeftHandIndex
									{
										OFFSET -0.09894 0.23768 -0.09894
										CHANNELS 3 Zrotation Xrotation Yrotation
										JOINT LeftHandIndex1
										{
											OFFSET -3.51151 0.31689 0.00000
											CHANNELS 3 Xrotation Zrotation Yrotation
											JOINT LeftHandIndex2
											{
												OFFSET -1.84639 0.16663 0.00000
												CHANNELS 3 Xrotation Yrotation Zrotation
												JOINT LeftHandIndex3
												{
													OFFSET -1.11115 0.10027 0.00000
													CHANNELS 3 Xrotation Yrotation Zrotation
													End Site
													{
														OFFSET -0.68141 0.06149 0.00000
													}
												}
											}
										}
										JOINT LeftHandThumb1
										{
											OFFSET -0.07717 0.24561 -0.29681
											CHANNELS 3 Zrotation Xrotation Yrotation
											JOINT LeftHandThumb2
											{
												OFFSET -2.26387 0.83100 0.00000
												CHANNELS 3 Xrotation Zrotation Yrotation
												JOINT LeftHandThumb3
												{
													OFFSET -1.41489 0.51936 0.00000
													CHANNELS 3 Xrotation Yrotation Zrotation
													End Site
													{
														OFFSET -0.87978 0.32294 0.00000
													}
												}
											}
										}
									}
								}
							}
						}
					}
				}
			}
		}
	}
	JOINT RightUpLeg
	{
		OFFSET 4.30987 0.00000 0.00000
		CHANNELS 3 Xrotation Zrotation Yrotation
		JOINT RightLeg
		{
			OFFSET 0.00000 0.00000 -14.67553
			CHANNELS 3 Xrotation Yrotation Zrotation
			JOINT RightFoot
			{
				OFFSET 0.00000 0.00000 -16.92095
				CHANNELS 3 Xrotation Zrotation Yrotation
				JOINT RightToeBase
				{
					OFFSET 0.00000 5.09058 -1.29984
					CHANNELS 3 Xrotation Yrotation Zrotation
					End Site
					{
						OFFSET 0.00000 3.08946 0.00000
					}
				}
			}
		}
	}
	JOINT LeftUpLeg
	{
		OFFSET -4.30987 0.00000 0.00000
		CHANNELS 3 Xrotation Zrotation Yrotation
		JOINT LeftLeg
		{
			OFFSET 0.00000 0.00000 -14.67553
			CHANNELS 3 Xrotation Yrotation Zrotation
			JOINT LeftFoot
			{
				OFFSET 0.00000 0.00000 -16.92095
				CHANNELS 3 Xrotation Zrotation Yrotation
				JOINT LeftToeBase
				{
					OFFSET 0.00000 5.09058 -1.29984
					CHANNELS 3 Xrotation Yrotation Zrotation
					End Site
					{
						OFFSET 0.00000 3.17667 0.00000
					}
				}
			}
		}
	}
}
MOTION
Frames: 5
Frame Time: 0.008333
 -4.0541 9.1560 18.4363 148.6560 -6.3227 -175.2635 -28.9165 0.8937 1.4751 -28.9178 0.7618 1.5473 -5.7787 0.3694 3.2538 -5.7787 0.3694 3.2538 -12.8576 -12.9215 8.0312 8.0953 -15.1269 6.4354 36.6115 -16.2409 8.0412 7.6492 10.4774 -1.3990 10.5317 46.3090 32.8622 76.2785 0.0000 -17.3713 -2.2041 -15.6317 8.1288 -3.1347 -5.0425 31.9265 0.0000 30.1671 0.0000 -0.0000 17.0750 -0.0000 -3.1754 6.2587 0.0484 2.0329 -2.5601 37.9332 4.0643 38.1452 -1.4057 1.4060 15.2104 -0.1877 -1.3026 7.9037 0.0699 3.5055 -7.8458 35.6418 7.8988 31.5726 -2.2364 5.1829 21.9972 -1.0080 6.8449 4.0552 0.6792 -9.6299 -14.3370 26.7720 -3.6538 35.2287 1.1604 -0.9722 10.6485 0.0906 14.9571 -47.4352 17.9546 0.0269 -4.5701 -0.2602 -1.6673 4.9260 -2.9328 -0.5933 -7.0151 -0.0725 -41.5606 -36.7726 4.8660 -69.5800 -0.0000 -19.7050 -15.7309 -4.0749 75.8407 1.7602 -1.8956 -42.8940 0.0000 -21.7617 0.0000 -0.0000 -17.3347 -0.0000 2.0230 14.2996 -1.3777 1.9444 2.5839 -36.9577 3.0951 -30.8923 0.8554 1.0741 -11.7345 0.1104 1.2575 6.1998 0.3951 2.3023 5.1197 -16.7397 6.4605 -26.7100 1.5353 3.1244 -13.6979 0.3754 -7.3803 10.3369 1.1582 -11.6951 8.7826 -40.3376 -3.0255 -30.3216 -0.8200 -1.0529 -11.5094 -0.1061 -13.7242 -33.9992 -9.5408 9.7840 7.8677 18.2339 -0.1951 -0.5361 0.3285 59.5054 9.0795 -28.4649 -97.6740 0.0000 0.0000 3.9511 17.9381 6.6961 9.2003 -0.0000 0.0000 61.9408 1.7498 32.9927 -103.6592 -0.0000 0.0000 11.0989 -0.2248 1.1958 9.7527 -0.0000 0.0000
 -4.0540 9.1561 18.4358 148.6580 -6.3221 -175.2634 -28.9161 0.8928 1.4749 -28.9173 0.7609 1.5471 -5.7807 0.3685 3.2496 -5.7807 0.3685 3.2496 -12.8524 -12.9243 8.0326 8.0917 -15.1306 6.4415 36.5958 -16.2461 8.0543 7.6512 10.4768 -1.3993 10.5246 46.3165 32.8511 76.2816 0.0000 -17.3849 -2.2084 -15.6315 8.1446 -3.1350 -5.0418 31.9325 -0.0000 30.1487 0.0000 0.0000 17.0541 0.0000 -3.1765 6.2551 0.0500 2.0345 -2.5568 37.9189 4.0586 38.1067 -1.4022 1.4037 15.1874 -0.1872 -1.3059 7.9043 0.0721 3.5084 -7.8355 35.6062 7.8850 31.5282 -2.2291 5.1796 21.9846 -1.0068 6.8459 4.0594 0.6814 -9.6394 -14.3523 26.7776 -3.6543 35.2324 1.1607 -0.9720 10.6464 0.0906 14.9365 -47.4093 17.9311 0.0394 -4.6004 -0.2920 -1.6674 4.9264 -2.9330 -0.5890 -7.0069 -0.0719 -41.5567 -36.7811 4.8717 -69.5835 -0.0000 -19.7717 -15.5540 -4.0143 75.8824 1.7662 -1.8944 -43.0079 0.0000 -21.8485 0.0000 0.0000 -17.5045 0.0000 2.0488 14.2826 -1.3570 1.9646 2.5837 -37.2405 3.1194 -31.0903 0.8679 1.0885 -11.8880 0.1133 1.3482 6.1024 0.4231 2.4371 4.8560 -17.0975 6.5489 -27.0228 1.5753 3.1654 -13.8706 0.3851 -7.4021 10.3229 1.1395 -11.7049 8.7994 -40.3285 -3.0283 -30.3448 -0.8214 -1.0607 -11.5921 -0.1077 -13.7966 -34.0076 -9.5404 9.7644 7.8505 18.2072 -0.2083 -0.5729 0.3509 59.5105 9.0793 -28.4646 -97.6756 -0.0000 -0.0000 3.9509 17.9346 6.6906 9.1907 0.0000 -0.0000 61.9575 1.7549 32.9952 -103.6649 -0.0000 0.0000 11.1089 -0.2461 1.2889 9.6986 0.0000 0.0000
 -4.0533 9.1564 18.4357 148.6545 -6.3207 -175.2575 -28.9160 0.8926 1.4723 -28.9172 0.7609 1.5445 -5.7889 0.3695 3.2465 -5.7889 0.3695 3.2465 -12.8532 -12.9268 8.0161 8.0867 -15.1343 6.4485 36.5846 -16.2600 8.0926 7.6529 10.4706 -1.3988 10.5365 46.3318 32.8400 76.2575 0.0000 -17.3333 -2.2375 -15.5834 8.2754 -3.1228 -4.9665 32.2187 0.0000 30.0357 0.0000 0.0000 16.9825 -0.0000 -3.1777 6.2871 0.0806 2.0756 -2.5297 38.1860 4.0415 37.9896 -1.3917 1.3965 15.1131 -0.1853 -1.2637 7.9417 0.0935 3.5025 -7.8864 35.8502 7.8316 31.3561 -2.2013 5.1452 21.8527 -0.9939 6.8449 4.1012 0.6605 -9.6990 -14.2948 26.9869 -3.6436 35.1536 1.1546 -0.9615 10.5334 0.0886 14.8815 -47.3874 17.8913 0.0631 -4.6799 -0.3536 -1.6525 4.8782 -2.9052 -0.5791 -7.0063 -0.0706 -41.5387 -36.7917 4.8694 -69.5784 -0.0000 -19.7507 -15.6247 -4.0394 75.8627 1.7515 -1.8849 -42.9133 0.0000 -21.6808 0.0000 0.0000 -17.3122 -0.0000 2.0325 14.2714 -1.3746 1.9653 2.5647 -37.0472 3.0868 -30.8244 0.8511 1.0731 -11.7237 0.1102 1.2892 6.1663 0.3908 2.3631 4.9657 -16.8319 6.4649 -26.7257 1.5373 3.1271 -13.7094 0.3760 -7.3786 10.3287 1.1482 -11.7071 8.8162 -40.3008 -3.0131 -30.2193 -0.8137 -1.0495 -11.4735 -0.1054 -13.7328 -33.9792 -9.5085 9.7858 7.8572 18.2386 -0.1944 -0.5342 0.3273 59.5081 9.0873 -28.4685 -97.6756 -0.0000 -0.0000 3.9509 17.9359 6.7002 9.1821 0.0000 -0.0000 61.9582 1.7650 32.9944 -103.6660 0.0000 -0.0000 11.1194 -0.2565 1.3346 9.6691 0.0000 -0.0000
 -4.0544 9.1560 18.4356 148.6550 -6.3248 -175.2670 -28.9173 0.8953 1.4755 -28.9185 0.7633 1.5478 -5.7858 0.3708 3.2513 -5.7858 0.3708 3.2513 -12.8526 -12.9323 8.0201 8.0871 -15.1393 6.4457 36.5844 -16.2624 8.0827 7.6452 10.4708 -1.3974 10.5263 46.3273 32.8416 76.2601 0.0000 -17.2917 -2.2252 -15.5785 8.2326 -3.1198 -4.9610 32.2226 -0.0000 29.9175 0.0000 0.0000 16.9274 -0.0000 -3.1846 6.3158 0.0893 2.0691 -2.5403 38.2118 4.0266 37.8866 -1.3825 1.3907 15.0525 -0.1837 -1.2589 7.9407 0.0963 3.4794 -7.9300 35.9216 7.7971 31.2443 -2.1833 5.1219 21.7631 -0.9852 6.8507 4.1095 0.6541 -9.6797 -14.2824 26.9544 -3.6288 35.0435 1.1460 -0.9552 10.4661 0.0875 14.9048 -47.4071 17.9198 0.0453 -4.6693 -0.3111 -1.6487 4.8660 -2.8982 -0.5925 -7.0064 -0.0723 -41.5641 -36.7762 4.8885 -69.5742 -0.0000 -19.6869 -15.6898 -4.0537 75.8741 1.7429 -1.8777 -42.8829 0.0000 -21.7198 0.0000 -0.0000 -17.2956 0.0000 2.0146 14.2566 -1.3724 1.9672 2.5581 -37.0042 3.0859 -30.8172 0.8507 1.0742 -11.7358 0.1104 1.2519 6.2018 0.3823 2.3383 5.0167 -16.7703 6.4555 -26.6923 1.5330 3.1252 -13.7015 0.3756 -7.3601 10.3240 1.1552 -11.7078 8.8185 -40.2981 -3.0161 -30.2443 -0.8152 -1.0493 -11.4709 -0.1054 -13.7170 -34.0165 -9.4820 9.7645 7.8279 18.2114 -0.1918 -0.5270 0.3229 59.5071 9.0745 -28.4623 -97.6756 0.0000 -0.0000 3.9586 17.9248 6.6974 9.1872 -0.0000 -0.0000 61.9562 1.7457 32.9903 -103.6671 -0.0000 -0.0000 11.1238 -0.2517 1.3022 9.6602 0.0000 0.0000
 -4.0534 9.1567 18.4360 148.6530 -6.3267 -175.2547 -28.9253 0.8917 1.4710 -28.9265 0.7602 1.5431 -5.7761 0.3691 3.2530 -5.7761 0.3691 3.2530 -12.8474 -12.9321 8.0329 8.0882 -15.1383 6.4424 36.5800 -16.2537 8.0589 7.6418 10.4693 -1.3966 10.5223 46.3197 32.8494 76.2849 0.0000 -17.3404 -2.2224 -15.6155 8.2040 -3.1158 -4.9929 32.0240 0.0000 30.1243 0.0000 0.0000 17.0421 -0.0000 -3.1688 6.3048 0.0647 2.0305 -2.5653 37.9549 4.0557 38.0866 -1.4004 1.4002 15.1513 -0.1862 -1.2845 7.9139 0.0778 3.4633 -7.8967 35.6050 7.8686 31.4752 -2.2205 5.1607 21.9120 -0.9997 6.8475 4.0768 0.6643 -9.6417 -14.2762 26.8695 -3.6492 35.1947 1.1578 -0.9680 10.6037 0.0898 14.9134 -47.3690 17.9075 0.0418 -4.6656 -0.3027 -1.6686 4.9301 -2.9352 -0.5997 -7.0059 -0.0731 -41.5592 -36.7716 4.8796 -69.5901 -0.0000 -19.7545 -15.6152 -4.0235 75.9072 1.7589 -1.8935 -42.9035 -0.0000 -21.8394 0.0000 0.0000 -17.3708 -0.0000 2.0073 14.2625 -1.3687 1.9664 2.5537 -36.9463 3.0967 -30.9053 0.8562 1.0775 -11.7703 0.1111 1.2608 6.1730 0.3847 2.3265 4.9633 -16.5810 6.4698 -26.7430 1.5395 3.1320 -13.7299 0.3772 -7.3627 10.3350 1.1486 -11.7417 8.8110 -40.3956 -3.0351 -30.4009 -0.8248 -1.0582 -11.5653 -0.1072 -13.7243 -34.0305 -9.4972 9.7751 7.7961 18.2335 -0.1938 -0.5326 0.3263 59.5018 9.0862 -28.4753 -97.6724 -0.0000 -0.0000 3.9583 17.9419 6.7227 9.1810 0.0000 -0.0000 61.9406 1.7595 32.9856 -103.6570 -0.0000 -0.0000 11.0877 -0.2219 1.2018 9.7872 -0.0000 0.0000
